<svg xmlns="http://www.w3.org/2000/svg" xmlns:xlink="http://www.w3.org/1999/xlink" width="100" height="100" viewBox="0 0 100 100">
  <defs>
    <path id="not-found-a" d="M50 100A50 50 0 1 1 50 0a50 50 0 0 1 0 100z"/>
    <circle id="not-found-c" cx="52" cy="52" r="52"/>
  </defs>
  <g fill="none" fill-rule="evenodd">
    <mask id="not-found-b" fill="#fff">
      <use xlink:href="#not-found-a"/>
    </mask>
    <use fill="#FEFEFE" xlink:href="#a"/>
    <g mask="url(#not-found-b)">
      <g transform="translate(-2 -3)">
        <mask id="not-found-d" fill="#fff">
          <use xlink:href="#not-found-c"/>
        </mask>
        <g fill="#E6E6E6" mask="url(#not-found-d)">
          <path d="M7.2 190.9l-2.3-8.3 12.2 2-1 8-9-1.7zm-5.4-19.5l16.7 2.5-1.1 8.8-13-2-2.6-9.3zm20-.7l-8.5-31.4 9.1-4.7 10 5.3-4.4 31.8-6.2-1zm-10.3-1.5l-4.2-14.3 6.2-1.7 4.6 17-6.6-1zM4 144l6-3.2 3 10.6-6.3 1.7-2.7-9.1zm20.3-10.5L35 128c1.7 1.9 4 3.2 6.6 3.7L40 142l-15.6-8.4zM8.2 118.9l13.1 1.5 1 7.6-10.3 5.3-3.8-14.4zm14-4.6l9.2 3.6a14.2 14.2 0 0 0 .7 5l-8.2 4.2-1.6-12.8zm.4-3.7l2.3-6 8.6 6.9c-.6.8-1 1.8-1.4 2.8l-9.5-3.7zm-10.2-4l2.3-10.3 8.8 7.1L21 110l-8.6-3.2zm5.7-25.3c8 3 15 5 18.5 6l-.2 7.4-11.8 7.3-9.4-7.6 2.9-13zM5.5 90l4.3-12 5 2.2-2.7 12.5L5.5 90zm21.8-36.4l10.3-1.9-.9 32L25.4 80l1.9-26.6zM3.2 26l12-.9L18 51.4 7.6 53.3 3.2 26zM28 24.1l2 25.2-8.7 1.5-2.7-26 9.4-.7zm10.3-.8L37.7 48l-6 1-2-25 8.6-.7zm16.1-9.5l9.2 1.9-.8 10.3-10.5-3.2 2.1-9zm-10.3 6.5l.4-15.7 10.2.6-4 17-6.6-2zM12 1.5l16.8 1.2-1 17.8-18.5 1.4L12 1.5zM31-4.8l8 .9-.6 23.6-8.8.6 1.4-25zM12.3-.3l.8-6.4L29.3-5 29 1 12.3-.4zm19-8l.7-5.8 7.3.7-.2 5.9-7.8-.9zm-17.8-2l.7-5.5 16.1 1.6-.7 5.6-16-1.7zM34.3-31l5.5.8-.4 15.1-7.1-.7 2-15.2zM14.4-17.6l2-16.2 16.2 2.4-2 15.4-16.2-1.6zm38.4-10.7l1.5 20h-9.4l.5-21.1 7.4 1zm2.2 30L44.6 1l.2-7.5h9.6l.6 8.1zm12-27.9L64.6 2.2l-8-.5L54.5-28 67-26zm36.3 5.6L95.2-2.7 69.5-15l.8-10.8 33 5zm55-9l17.4 3.3-1 7.4-18-2 1.6-8.6zm1.5-8.1l38.7 6-1.3 7.5-38.6-7.1 1.2-6.4zm58.2 1.8l2.3 11.4-18 4 2.4-13.5L218-36zm15.8 10.3l-2.5 14.4-30-3.6.7-3.8 31.8-7zm7.4.1l2.7 9.2-8.4 1.1 1.8-10.7 3.9.4zm-3.6-2.2l2.7-15.3 13 2-1.3 14.8-14.4-1.5zm30.2-11.2l-.9 7.4-10.8-2.1.6-7 11 1.7zm8.4 1.3L272.9-9l-6.8-.8 3.4-28.7 6.7 1zM263.3-1.5l-9 .3.2-8 9.7 1-.9 6.7zm9.4-5.8l-.6 5.6-7 .2.7-6.6 6.9.8zM251.1 10l-14.9 1.2-1.2-14 16 .8v12zm18 13.9l-13.5 1c-.8-7.2-1.2-15-1.2-22.5l17.2-.5-2.5 22zm-15.5 10.9l-15 2.2-2.2-24 14.7-1.2c.4 8 1.1 16 2.5 23zm6.1 17.3c1.1 1.8 2.4 3.6 3.9 5.2l-11.3 3.1-4.3-23 6-.8a51 51 0 0 0 5.7 15.5zm12.2-4.6l4.8 8.5-8.3 1.4c-1.6-1.6-3-3.3-4.3-5l7.8-5zm3.5 20.2l-4.7 14.5-15.5-4.7 6.2-15.8 5-1.4c2.7 2.7 5.7 5.1 9 7.4zM270.1 84l-3.6 11-15.7-6 3.7-9.7 15.6 4.7zm9.9 3.8l-4.3 10.8-6-2.3 3.7-11.2 6.6 2.7zm-3 15.2l-3.4 11.6-6.9-2.2-9-4.3 4-11 15.3 5.9zm-3.9 13.3l-2.3 7.8-7.5 1 3.7-10.7 6.1 2zM251 126.6l6-17 8.4 4-4 11.7-10.4 1.3zm-12.7 1.7l-2-14 15.8 4-3 8.6-10.8 1.4zm34.4 6l-23.2 8.4-2.2-12 23.6-3 1.8 6.7zm2.6 10l-23.4 12.1-2.1-12 23.3-8.3 2.2 8.2zm-9.1 25.4l-35.1 4.6v-.3l33-17.2 2 12.9zm2.6 16.8l-37.4-7.3v-1.3l35.3-4.7 2.1 13.3zm-13.4 3.5l-22.8 11.2-7-12.3a13 13 0 0 0 3.8-4l26 5zm.2 21.2l-25.5-4.8 31-15.2-5.5 20zm18.3-17.6l-5 20-11.6-2.1 5.6-20 11 2zm-18.8 21.2l-.2 16.7-15.1.7-.2-20.3 15.5 2.9zm13.4 2.5l.8 13.6-12.7.6.2-16.4 11.7 2.2zm-42.1 15.5l2.3-23 9.2 1.8.2 20.7-11.7.5zm-15.7.6l3.1-17.4 12.3 2.2-1.5 14.6-13.9.6zm-6 1.9l-3.5 19.1-21.2-4 3.7-19.4 21 4.3zm65.4 8.9l-12.8.7.2-9.8 12-.6.6 9.7zm-60.6-3.7l.6-3.4 44-1.9-.2 9.6-44.4-4.3zm15.5 3.3v6.1l-16.7-2.5.9-5.1 15.8 1.5zm28.9 2.8l-.2 7.7-27-4.1V244l27.2 2.6zm17 10.3l-13.7-2v-8.2l13-.7.6 10.9zm-108.2-10l3.5-19.6 15.8 3.3-3.7 19.4-15.6-3zm-22-9.1l3.4-15 18.7 3.8-2.6 15.1-19.5-4zm-7.6 18l-8-1.2 3.4-17.5 8.4 1.7-3.8 17zm-18.4-2.8l1.3-7.2 8.7 1.7-1.3 6.9-8.7-1.4zm1.6-9l1.5-9.2 9 1.9-1.7 9-8.8-1.7zm-17.7-7.1l2.9-21.5 13.4 2.6-3.5 20.8-12.8-1.9zM72 247.8L59 245.6l3.7-23 13.5 3.2c-1.4 6.8-3 14.7-4.3 22zm-36.5-5.7l-9.7-9.3 32.2-1.4-1.1 6.8-21.4 4zm-19.1 3l-.3-11.9 7.3-.3 10 9.5-17 2.6zm15.1-22.7l1.6-7.8 26.7 5.6-1.2 7.2-27-5zm-27.1-5l1.5-8.4 25.6 5.3-1.7 7.8-25.4-4.8zm2.2-12l1.5-8.2 16.6 3.2-1 8.6-17.1-3.5zm28.1-9.1l3.2-19.5 12.8 2-3.7 19.8-12.3-2.3zm15.6-41.8l10.6 2-9.1 18.8-5-.8 3.5-20zm-12.9 3.7l-5.7-1.4 2.2-16 5.8 3-2.3 14.4zm26.5-4.8l-21.6-4 2.8-17.6c1.6-.2 3.2-.7 4.6-1.4l14.2 23zm7.9-19.4l-3.9 20.1-1.7-.3-15.1-24.4c.7-.5 1.3-1.1 1.9-1.8l18.8 6.4zm-16-11.7a13.9 13.9 0 0 0 .5-4.2l23.8-6.3 4.3 14.4-7.6 3.2-21-7.1zm-5.2-3.6c0 4-3 7.1-6.7 7.1-3.8 0-6.8-3.2-6.8-7.1 0-4 3-7.2 6.8-7.2 3.7 0 6.7 3.2 6.7 7.2zm-.8-37.2l5.5 3.5L50 96.4 42 95l.4-14.4 7.3 1zm3.3-11l7 4-4.1 8.9-5-3.2 2-9.7zM54.7 54l-5.3 25.6-6.9-.9.8-27L54.7 54zm-4.2-15.4l23.2 5.9-4 8.9-20.3-4.1 1-10.7zm-2.8 10.3l-4.3-.9.6-24 6 1.9-2.3 23zm30.5-14.3l-3.8 8.2-23.8-6 1-10.4 26.6 8.2zm5.9-12.9l-4.4 9.6L66.1 27l.8-10.6 17.2 5.2zM93.7.5l-8.9 19.6-3-1-6-27L93.7.5zm18.5-9.1L110 .9l-9.5-1.2 4.4-9.6 7.4 1.3zm14.6-9.4L125-8.2l-19.5-3.4 3.8-8.2 17.5 1.8zm49.6-.7l1-7.3 19.5 3.6-1 5.7-19.5-2zM144-7.2L126.7-8l1.9-9.8 16 1.7-.6 9zm10 4.8l-6.6-4.3.6-9 19.4 2L154-2.3zm17.7 7l-7.4-.2-8.8-5.8 14.4-12 2.3.3-.5 17.8zm15.2.7l-11.8-.5.5-17.6 11.4 1.3-.1 16.8zm8.7-16l2 16.5-9-.4.1-16.8 7 .8zM175.1 6.7l11.9.5.9 11-13-.3.2-11.2zM165 6.2l6.7.3-.3 11.2-5.7-.1-.7-11.4zm-18.4-.7l16.7.7.7 11.3-18.2-.5.8-11.5zM135.5 5l7.6.3-.7 11.6-7.5-.2.6-11.7zm-11-.5l9.3.4-.6 11.8-11-.3 2.2-11.9zm-3 6l-1 5.8-27.3-.7 3.1-7 25.2 2zM107 2.4l15.8 2-.8 4.5-16.3-1.3 1.3-5.2zm-1.8-.2L104 7.4l-6.8-.5 2.5-5.5 5.5.7zm18 .5l-11.5-1.5 2.3-9.4 10.8 1.9-1.7 9zm10.8.5l-9.2-.4 1.7-8.9 7.8.4-.3 9zm13.3-7.8l13.7 9-14.2-.6.5-8.4zm-4 8.2l-7.6-.3.3-9 8 .4-.6 9zm55.8 15l-9.4-.3-1-11 9.1.4 1.3 10.9zm24.2 1.2l10.3-1.3.4 5-10 1.7-.7-5.4zm-1 5.6l-7.4 1.3-.8-5.8 7.5-1 .7 5.5zm3.4 13.8l-1.5-12.3 10-1.6 1 11.6-9.5 2.3zM241 63.5l-2.3-24.7 7.6-1.1 4.3 23.2-9.6 2.6zm1.9 10.4l2.6-7.9 13.9-3.8-5.9 14.9-10.6-3.2zm-3.5 10.6l3-9 10.5 3.2-3.8 9.5-9.7-3.7zm-5 16.4L232 85.5l28 10.8-4 11-21.7-6.4zm.2 2l20.9 6.2-2.7 7.6-16.8-4.4-1.4-9.4zm-18 18.6l-2.2-19.3H231l2.6 17.3-17 2zm18.7 9.8l-8.5 1.4-1.2-10.5 8.2-1 1.5 10.1zm3.5.6l6.8-.9 4.7 26.2-7.2 3.8-4.3-29zm-17.2 32.8l-1.5-12.9L238 149l2 13.8-11.7 6c-1.7-2-4-3.4-6.6-4zm-14.4 9l-5.5-1.9 4.2-8.7 4.3 5.3a13.4 13.4 0 0 0-3 5.3zm5 3.9c0-4 3.1-7.2 6.8-7.2 3.8 0 6.8 3.3 6.8 7.2 0 4-3 7.2-6.8 7.2-3.7 0-6.7-3.3-6.7-7.2zm-1.7 24.8l-23.1-3.9 4.5-23.7 14.9 5c.6 4 2.9 7.3 6 9.2l-2.3 13.4zm5.5 1.4l2.3-13h.7c1.8 0 3.5-.4 5-1.1l7 12.3-6.8 3.3-8.2-1.5zm-7.5 9.5l-14-2 1-7.7 14.3 2.4-1.3 7.3zm5.6 1l1.3-7 11.6 2.2-.7 7-12.2-2.3zm-20-1.3l14.1 2-3 16.7L192 229l2.2-16zm-23-13.6l21 3.6-3.4 25.3-21.9-4.5 4.3-24.4zm-24.4 20.2l20.5-17.7-3.7 21.2-16.8-3.5zm-6 2.5l-3.3 15-19.3-4 2.6-15.2 20 4.2zm-19.4-7.7l2.4-14.5 9.6-8.3 13.1 23.6-4 3.5-21.1-4.3zm-38.8-2.7l17.3 3.4-2.8 21.5-18.8-2.8 4.3-22.1zm-17.4-3.4l14 2.7-2.5 13-13.5-3.2 2-12.5zm-23.9-4.7l20.6 4-1.5 9-20.2-4.2 1.1-8.8zm-1.7-.3l-1 8.8-13.2-2.7 1-8.6 13.2 2.5zM63 180.6l-4 20.4-10.2-2 3.7-20 10.5 1.6zm7.7-22.3l17.6 3.3-3.4 18.7-17.9-2.7 3.7-19.3zm-3.4-.6L63.5 177l-10-1.6 9.2-18.7 4.5.9zM92 140.9L89 158l-17.6-3.2L75 135l17 5.8zm9.3-20l9.7 20-31.6-10.6 22-9.4zm5.7-16.3l2.9 10.7-23.9 10.2-4.1-14.2 25-6.7zm-22.1-7.8l2.5 6.8-20.3 5.5-2.2-6.4 20-5.9zm-12.6 1.9l-8 2.3L60 88.6l4.4-9.8 7.8 19.9zm0-37l5.7 16-9.8 6-2.7-7 6.7-15zm-4-5l-7.4 16.1-7.4-4.2 3-14.2L68 56.8zm25.5-2.2L80.5 74.8l-6.3-17.5 3.8-8.4 15.7 5.6zm9.5-21.3l-7.8 18-16-5.6 8-17.2 15.8 4.8zm15.5-7.7l-4 7.4-25.9-7.8 2.7-6 9.5.3 17.7 6.1zm.6-1.7L107 19.6l12.9.3-.6 4zm16.9 5.9l-15.3-5.3.7-4.4 18.1.5-3.5 9.2zm27.3-8.6l1.6 18.6-27.3-9.5 3.7-9.7 22 .6zm42.3 7l-.7-6.3 7.2-.8.8 5.9-7.3 1.2zM217 41.3l-1.8-13 7.3-1.2 1.5 12.4-7 1.8zm-.2 13.2l.4-9.6 18.4-4.5.9 10.4-19.7 3.7zm-.7 15.9l.6-14 20-3.8 1 11.9-21.6 5.9zm-2 4.3l29.5-8.1-5.7 17.2-23.7-9.1zm-.7 18l-1.8-15.1 15.6 6-13.8 9zm.9 7.7l-.7-5.8 15-9.9 2.3 15.8h-16.6zm-22.2 2.9l16.2-5.2 2 18-1.3.4-17-13.2zm-10 24.4l-5.3-7.7 22.2-9.1 8 6.2c-7 2-18.2 6-25 10.6zm36.5 10l17.3-2.8 1.8 12.2-17.7 3-1.4-12.4zm-21.9 8.4l5.1-6.4 11.7 3.5 2.5 21.7c-1 .3-2 .7-3 1.3L196.6 146zm-15.4 18.7l14.1-14.8 9.4 11.6-4.6 9.7-18.9-6.5zm-6.6 15.3l1.8-10.5 13.9 4.7-1.6 8.2-14.1-2.4zm4.2 17l-7-1.2 2.5-14 6.3 1-1.8 14.2zm1.7.2l1.8-14 6 1-2.6 14-5.2-1zM143.3 183l7.2-6.3 17.4 20-11.4 9.8-13.2-23.5zm-2.7 2.3l13.2 23.5-6 5.3-13.2-23.6 6-5.2zm-11-19.7l10.1 18-15.5 13.5 5.4-31.5zM98 196.7l3.4-14.8 19 3.4L118 200 98 196.7zm8.6 3.3l11 1.8-1.7 10.3-10.6-2 1.3-10.1zm-8.9-1.5l7.2 1.2-1.3 10-6.6-1.3.7-10zm-12.4-2l10.8 1.7-.8 9.9-11.7-2.3 1.7-9.4zm-3.3-.8l-1.7 9.4-18-3.5 2-10.4 17.7 4.5zm2.1-11.9L82.3 194l-17.6-4.5 1.6-8.3 17.8 2.7zm15.6-2.2l-3.4 14.8-10.7-1.8 2.8-15 11.3 2zm21.5-1l-.5 2.9-32-5.7 2.5-13.8 30 16.5zm-19-24.4l21 13.3-1.6 9.2-26.2-14.4 6.9-8zm6.1-9.8l-14.5 17-2.3-1.2 3.7-20.2 13.1 4.4zm9.2-24l-4.5 19-10.2-21.2 7.9-3.4 6.8 5.6zm-33-36.6l25 5.2-2.4 7.3-16.5 4.4-6.1-17zm-.3 9.3l-10.4 3-5-12.8 9.7-5.9 5.7 15.7zm17.5-27.5l13.5 6.2-5.1 15.5-26.3-5.5-2.6-7 7.4-11.4 13.1 2.2zm.4-10.1l-.9 8.2-11.5-2 5.7-8.6 6.7 2.4zm8-12.3l12.5 5-2.9 9.7-13.5-4.8 3.8-9.9zm.2-9.9l-7.4 18.6-5.8-2 7.8-18.2 5.4 1.6zm55.6 13l-49.4-14.9 3.8-7.3 45 15.5.6 6.7zm23-18.3l-19.6 18.2-2.4-27 21.3.6.8 8.2zm11.3-1.2l-9.6.6-.7-7.6 9.5.3.8 6.7zm5.8 1.1l7.4-1.2 1.9 13-7.7 1.9-1.6-13.7zm-34.4 18.6l18.6-17.2 10.2-.7 1.6 14-30.4 3.9zm36.4-1.3l7.4-1.8-1.1 25.5-3.4 1-2.9-24.7zm-14.1 2l8.5-1 2.8 24-7.8 2-3.5-25zm-16.4 30.3l6.2-18.8 9.9-1.3 2.1 15.2-18.2 4.9zm2.9 5.5l25.5-6.9 1.9 16.4-24.3 7.7-3.1-17.2zM168 107.2l-10.9-16 21.6-5.8 3.2 17.3-14 4.5zm13.9-.7l8-2.6 7.3 5.7-11.8 4.8-3.5-7.9zm-11.8 3.8l10.1-3.2 3.7 8-8.3 3.3-5.5-8.1zm18.6 26l-4.6-5.7c3-2.1 7.1-4 11.4-5.8l2.3 6.4-9.1 5zm1.1 1.4l8.6-4.8 2 5.6-5 6.2-5.6-7zM148.6 176l-6.2 5.4-4.4-7.9 10.6 2.5zm-17.1-21.7l21.3 7.2-2.9 13-13.1-3.1-6.3-11.3 1-5.8zm-5.5-1.9l-2.6 15.2-20-12.7 6.7-7.9 15.9 5.4zm-7.4-89l-2.9 8.7-12.8-6 .9-8 14.8 5.2zm17.3-10l-25.2-9.8 2.9-7.3 25 7.5-2.7 9.6zm15.8 2l-12-3 2.1-7.6 12 3.6-2.1 7zm14.5-3.3l.6 7-13.4-3.3 2-6.9 10.8 3.2zm3.5.2l22.5-2.8 1.1 8-22.9 3.2-.7-8.4zm12.1 8.7l-6.2 19-3.4 1-1.6-18.4 11.2-1.6zM167 61l1.9 20.8-8.6 2.3-.7-25L167 61zm4 120.2l-2.5 13.4L153 177l18 4.2zm-19.4-6.4l2.8-12.7 18.8 6.3-2 11-19.6-4.6zm72.3-52.4l1.2 10.6-7 1.2-1.3-10.9 7.1-.9zm-10.7 18.9L202 138l-5-13.8c5.2-2 10.4-3.6 13.6-4.5l2.5 21.6zm-1.4-124l-7.1 1-3.4-29.5 7.5 1 3 27.6zM247.5-4l-12.7-.5-.4-4.6.7-4.2 9.3-1.2 3 10.5zM233 14.8l-19.6 2.4-3-27.3 20.6 2.6 2 22.3zM256-31.8l10.8 2-2.3 19.7-9.8-1c.3-7.9.8-15 1.3-20.7zm-4 7.4c-.5 6-.8 13.2-1 20.6h-1.6L243-25.4l8.9.9zM63.7 13.8L54.8 12l1.7-6.7 7.9.5-.7 8zM69.1-11l4.7 2.2L80 18.6l-13-4L69.2-11zm-18 119L59 90.8l6.5 18.7-10.6 2.8A13 13 0 0 0 51 108zm-15 .4l-1.6 1.6-8.4-6.8 10.3-6.4-.4 11.6zm5.7-2.7l.2-9 7.3 1.4-3.4 7.6a12 12 0 0 0-4 0zm-6.7 67l-5.4-.8 1.8-13.3 5.6 1.4-2 12.7zm6.6-19.8l7 1.3-3.6 20-6.7-1 3.3-20.3zm-22.2 40.4l2.4-18.9 12.6 2-3.1 19.2-12-2.3zm-14.8 3.2L1 216.7l-4.3-.8v3.7l47.4 8.8-47.4 2v3.6l16-.6.2 9.2-16.2 1v1.7l16.2-.9.4 13.8h3.4l-.3-11.4 5.7-.8-.3 12.2h1.7l.4-12.5 11-1.7 7.8 7.4-4.1 6.8h2l3.4-5.5 5.8 5.5h2.5l-15.2-14.6 19.4-3.5-2.9 18.1h3.5l1.4-9 12.8 2.1-1.4 7h3.5l1-5.2 6.2 5.1h5.5l-11-9 2.4-11.9 33.3 5-2.7 16h5.8l.2-1.7 10.8 1.6h23.4l-11.9-1.8 3.9-16.9 19.6 4-2.7 14.7h3.5l1.7-9.5 38.5 7.5-.3 2h5.8l.8-4.9 8.7 1.3.7 3.6h1.8l-.7-3.3 19.2 3v.3h42.8l-7.1-1-.7-11.3 9.2-.6v-1.8l-9.3.6-.5-9.6 9.8-.5v-3.6l-10 .5-.8-13.3 10.8 2v-3.7l-10.5-2 5-20 5.5 1v-6l-10.5-2-2.2-13.9 12.7-1.6v-3.7l-13.2 1.7-2.2-13.4 11.1-5.8 4.3 15.4v-13l-1.2-4 1.2-.6v-6.7l-2.7 1.4-2-7.8 4.7-1.7v-2l-5.2 2-2-7.5 2.6-8.7 4.6.5v-1.8l-4.1-.5 3.3-11.1.8.3v-3.8l-3.8-1.5 3.8-9.5v-3.3l-7.2-3 4.5-13.6 2.7 1.6v-4.2c-3.3-2-6.5-4.2-9.3-6.6l9.3-1.6v-3.7l-2.6.4-5.1-9 7.7-4.8v-2.1l-18 11.2-.5-.8a46 46 0 0 1-5.1-13.6l23.6 1.8v-1.8l-24-1.9c-.4-2-.8-4-1-6.1l25-2V23l-8.5.7 2.5-21.7 6-.2v-3.6l-5.6.1.6-5 5-5.4v-2.5l-4.7 5 2.1-18.3 2.6.3v-1.8l-2.4-.3.9-7.3 1.5.3V-43l-1.4-.2h-42.9l-2.7 15.6L222-25 218.4-43h-1.8l1 5.4-12.5 1.8 1.3-7.2h-5.8l-1.4 7.9-38.8-6 .3-2h-3.5l-.2 1.4-8.7-1.3h-23.4l31.5 4.9-3 17-42.5-4.5 3-17.4H108l-2.7 16-19.3-16h-5.5l19.1 15.8-28.6-4.3 2.3-11.5h-3.5l-2.1 11L55.6-34l1.5-9.1h-3.5l-.2 1-1-1h-2.6L53-40l-.9 5.4-15.4-2.3 3.8-6.3h-2l-3.6 6L23.4-39l.1-4.2h-1.7l-.1 4-4.9-.8V-43h-3.5v2.7l-16.6-2.5v6L13-34.2l-.9 6.9-15.5-2v1.7l10.6 1.4-10.6 11.6v2.5L9.5-26l2.5.4L9-2.2-3.2-2v3.6l11.9-.3L6 22.2l-9.3.7v3.6l4.8-.3L3.2 37l-6.5-.5v1.8l2 .1-2 1.3v2l5-3 1.8.1L6 53.6l-9.2 1.6v3.7l28.8-5.1-1.8 25.7a143 143 0 0 1-27-12.4v4.2c3.8 2.2 7.7 4.2 11.5 6L4 89.3l-7.2-3v3.3l.4-1.2 14.6 6-2.5 11-12.5-4.8v3.8l23.8 9.2.6 5-24.4-3v2l9.7 1 2.1 8.2-11.8 4.5v1.9L9 128.6l1.4 5.5-13.7 7.2v6.7l5.9-3.1 7 24-8.8-1.4-4.1-14.8v13l.5 2h-.5v3.7l1.5-.2 5.2 19-6.7-1.4v6.2l8 1.5z"/>
        </g>
      </g>
      <path fill="#777" d="M76.6 56.4c1.6 5.5-4.3 12-11.8 14.8-4 1.5-14.7 4.7-14.7 4.7s-2.5-7.2-3-10C46.5 60.4 51 53.7 59 51c8.1-2.6 16-.3 17.6 5.3z" opacity=".3"/>
      <g transform="translate(29.3 25.8)">
        <path fill="#ED3967" d="M35.4 35.9c-3.8 4.3-14.8 14.7-14.8 14.7S9.6 40.2 5.8 35.8c-7.2-8.3-8.2-21.5 0-29.7a21 21 0 0 1 29.6 0c8.2 8.3 7.2 21.6 0 29.8z"/>
        <path fill="#FFF" d="M16.8 10.6h5.7l-.8 16.2h-4z"/>
        <circle cx="19.9" cy="32.1" r="3.1" fill="#FFF"/>
      </g>
    </g>
  </g>
</svg>
